<svg xmlns="http://www.w3.org/2000/svg" width="374.24" height="483.997" viewBox="0 0 374.24 483.997">
  <g id="Group_1956" data-name="Group 1956" transform="translate(-2458.584 4256.642)">
    <g id="g36" transform="translate(2832.824 -4015.375)">
      <path id="path38" d="M0,0C0,104.2-19.4,242.73-187.121,242.73S-374.24,104.2-374.24,0c0-59.669,0-241.267,187.12-241.267C-140.838-241.267,0-241.267,0,0" fill="#ffd000"/>
    </g>
    <g id="g40" transform="translate(2626.299 -4038.611)">
      <path id="path42" d="M0,0V45.335c0,26.555-13.784,41.18-38.816,41.18-28.556,0-41.856-17.808-41.856-56.049,0-37.488,13.692-55.712,41.856-55.712C-14.143-25.247-2.452-4.891,0,0M16.609-98.006A16.433,16.433,0,0,0,0-81.4v38.627A65.229,65.229,0,0,0-40.168-56.436c-60.932,0-73.721,47.257-73.721,86.9,0,56.257,26.66,87.24,75.073,87.24,44.431,0,72.033-27.731,72.033-72.37V-81.4A16.433,16.433,0,0,0,16.609-98.006" fill="#224314"/>
    </g>
    <g id="g44" transform="translate(2755.847 -4094.373)">
      <path id="path46" d="M0,0C-16.563,0-31.216,5.537-41.411,15.127A16.405,16.405,0,0,0-57.789,1.352,16.433,16.433,0,0,0-74.4,17.96V155.169a16.433,16.433,0,0,0,16.609,16.608,16.432,16.432,0,0,0,16.608-16.608v-75.7c0-29.82,15.011-46.924,41.181-46.924A16.289,16.289,0,0,0,16.269,16.271,16.289,16.289,0,0,0,0,0" fill="#224314"/>
    </g>
  </g>
</svg>
