<svg xmlns="http://www.w3.org/2000/svg" width="855.326" height="148.912" viewBox="0 0 855.326 148.912">
  <g id="Group_1954" data-name="Group 1954" transform="translate(-2239.888 5235.877)">
    <g id="g344" transform="translate(2318.509 -5168.221)">
      <path id="path346" d="M0,0V31.3C0,49.628-9.516,59.724-26.8,59.724c-19.713,0-28.895-12.295-28.895-38.693,0-25.879,9.452-38.459,28.895-38.459C-9.763-17.428-1.693-3.376,0,0M11.467-67.656A11.343,11.343,0,0,0,0-56.191v26.665A45.037,45.037,0,0,0-27.729-38.96c-42.063,0-50.892,32.624-50.892,59.991,0,38.836,18.405,60.224,51.825,60.224,30.672,0,49.727-19.143,49.727-49.959V-56.191A11.343,11.343,0,0,0,11.467-67.656" fill="#ffd000"/>
    </g>
    <g id="g348" transform="translate(2439.584 -5147.189)">
      <path id="path350" d="M0,0C0,16.611-3.092,38.693-29.828,38.693S-59.656,16.611-59.656,0c0-9.512,0-38.46,29.828-38.46C-22.451-38.46,0-38.46,0,0M-29.828-59.991C-64-59.991-82.82-38.687-82.82,0c0,38.836,18.819,60.224,52.992,60.224S23.164,38.836,23.164,0c0-38.687-18.819-59.991-52.992-59.991" fill="#ffd000"/>
    </g>
    <g id="g352" transform="translate(2554.627 -5120.161)">
      <path id="path354" d="M0,0A11.1,11.1,0,0,0-6.859,2.452c-5.259,3.888-12.463,9.212-24.636,9.212-25.9,0-28.895-22.081-28.895-38.692,0-38.46,21.748-38.46,28.895-38.46,13.716,0,19.024,6.016,22.187,9.6A10.98,10.98,0,0,0-.7-51.724,10.652,10.652,0,0,0,10.067-62.489a11.034,11.034,0,0,0-2.4-6.788C5.512-72.24-6.509-87.02-31.495-87.02c-33.571,0-52.059,21.305-52.059,59.992,0,38.835,18.488,60.223,52.059,60.223a57.253,57.253,0,0,0,37.76-13.5c.049-.041.1-.081.144-.124,3.053-2.749,4.356-5.381,4.356-8.805A10.778,10.778,0,0,0,0,0" fill="#ffd000"/>
    </g>
    <g id="g356" transform="translate(2620.878 -5181.917)">
      <path id="path358" d="M0,0A10.882,10.882,0,0,0,11-11,10.882,10.882,0,0,0,0-22H-11.164v-20.5A11.479,11.479,0,0,0-22.629-53.96,11.619,11.619,0,0,0-34.093-42.493V-22h-5.1a10.882,10.882,0,0,0-11,11,10.882,10.882,0,0,0,11,11h5.1V60.391c0,20.287,12.741,33.395,32.46,33.395a11.13,11.13,0,0,0,11.233-11,11.13,11.13,0,0,0-11.233-11c-6.145,0-9.531-4.048-9.531-11.4V0Z" fill="#ffd000"/>
    </g>
    <g id="g360" transform="translate(2721.858 -5147.189)">
      <path id="path362" d="M0,0C0,16.611-3.092,38.693-29.828,38.693S-59.656,16.611-59.656,0c0-9.512,0-38.46,29.828-38.46C-22.451-38.46,0-38.46,0,0M-29.828-59.991C-64-59.991-82.82-38.687-82.82,0c0,38.836,18.819,60.224,52.992,60.224S23.164,38.836,23.164,0c0-38.687-18.819-59.991-52.992-59.991" fill="#ffd000"/>
    </g>
    <g id="g364" transform="translate(2811.705 -5206.714)">
      <path id="path366" d="M0,0C-11.433,0-21.549,3.823-28.587,10.443A11.325,11.325,0,0,0-39.893.933,11.345,11.345,0,0,0-51.36,12.4v94.718a11.345,11.345,0,0,0,11.467,11.465,11.345,11.345,0,0,0,11.465-11.465V54.859c0-20.587,10.361-32.393,28.428-32.393A11.246,11.246,0,0,0,11.232,11.232,11.245,11.245,0,0,0,0,0" fill="#ffd000"/>
    </g>
    <g id="g368" transform="translate(2846.706 -5159.822)">
      <path id="path370" d="M0,0C2.456-16.7,12.437-25.827,28.452-25.827c16.2,0,24.655,8.459,25.741,25.827ZM77.012,2.135c0-22.831-12.717-49.493-48.56-49.493-16.139,0-29.427,5.5-38.427,15.905C-19.021-21-23.607-6.164-23.607,12.633c0,49.776,29.579,60.224,54.392,60.224,23.777,0,36.845-11.859,39.223-14.236a10.932,10.932,0,0,0,3.739-8.195A10.778,10.778,0,0,0,62.98,39.661a10.427,10.427,0,0,0-6.419,2.072c-.061.041-.121.083-.18.128-6.229,4.671-13.337,9.231-25.6,9.231-18.3,0-29.7-11.137-31.085-30.027H63.68c13.332,0,13.332-12.316,13.332-18.931" fill="#ffd000"/>
    </g>
    <g id="g372" transform="translate(3010.431 -5168.221)">
      <path id="path374" d="M0,0V31.3C0,49.628-9.516,59.724-26.8,59.724c-19.713,0-28.895-12.295-28.895-38.693,0-25.879,9.452-38.459,28.895-38.459C-9.763-17.428-1.693-3.376,0,0M11.465-67.656A11.343,11.343,0,0,0,0-56.191v26.665A45.033,45.033,0,0,0-27.728-38.96c-42.064,0-50.893,32.624-50.893,59.991,0,38.836,18.405,60.224,51.825,60.224,30.672,0,49.727-19.143,49.727-49.959V-56.191A11.343,11.343,0,0,0,11.465-67.656" fill="#ffd000"/>
    </g>
    <g id="g376" transform="translate(3074.579 -5213.415)">
      <path id="path378" d="M0,0A3.84,3.84,0,0,0,4.217-4.068C4.217-6.779,2.711-8.284,0-8.284H-6.325V0ZM6.627,9.337a1.837,1.837,0,0,1,.6,1.356,1.674,1.674,0,0,1-1.657,1.657,1.837,1.837,0,0,1-1.507-.9L-2.108,3.012H-6.325v7.681a1.674,1.674,0,0,1-1.657,1.657,1.672,1.672,0,0,1-1.656-1.657V-9.639A1.672,1.672,0,0,1-7.983-11.3H.753c4.668,0,6.928,3.465,6.928,7.229a6.819,6.819,0,0,1-6.175,7.08ZM17.321.452c0-13.556-6.779-19.881-18.828-19.881-11.9,0-18.676,6.325-18.676,19.881,0,13.855,6.777,20.031,18.676,20.031,12.049,0,18.828-6.176,18.828-20.031m3.313,0c0,15.663-8.133,23.043-22.141,23.043C-15.212,23.495-23.5,16.115-23.5.452s8.284-22.895,21.989-22.895c14.008,0,22.141,7.231,22.141,22.895" fill="#ffd000"/>
    </g>
  </g>
</svg>
